STARTFONT 2.1
FONT -FontForge-Monofett-Book-R-Normal--11-110-72-72-P-57-ISO10646-1
SIZE 11 72 72
FONTBOUNDINGBOX 7 13 0 -2
COMMENT "Generated by fontforge, http://fontforge.sourceforge.net"
COMMENT "Copyright (c) 2011 by vernon adams. All rights reserved."
STARTPROPERTIES 40
FOUNDRY "FontForge"
FAMILY_NAME "Monofett"
WEIGHT_NAME "Book"
SLANT "R"
SETWIDTH_NAME "Normal"
ADD_STYLE_NAME ""
PIXEL_SIZE 11
POINT_SIZE 110
RESOLUTION_X 72
RESOLUTION_Y 72
SPACING "P"
AVERAGE_WIDTH 57
CHARSET_REGISTRY "ISO10646"
CHARSET_ENCODING "1"
FONTNAME_REGISTRY ""
CHARSET_COLLECTIONS "ISO8859-2 ISO8859-9 ISO8859-4 ISO10646-1"
FONT_NAME "Monofett"
FACE_NAME "Monofett"
COPYRIGHT "Copyright (c) 2011 by vernon adams. All rights reserved."
FONT_VERSION "1.000"
FONT_ASCENT 9
FONT_DESCENT 2
UNDERLINE_POSITION -1
UNDERLINE_THICKNESS 1
X_HEIGHT 6
CAP_HEIGHT 6
RAW_ASCENT 799
RAW_DESCENT 200
NORM_SPACE 2
RELATIVE_WEIGHT 40
RELATIVE_SETWIDTH 50
SUPERSCRIPT_X 0
SUPERSCRIPT_Y 5
SUPERSCRIPT_SIZE 7
SUBSCRIPT_X 0
SUBSCRIPT_Y 1
SUBSCRIPT_SIZE 7
FIGURE_WIDTH 6
AVG_LOWERCASE_WIDTH 60
AVG_UPPERCASE_WIDTH 60
ENDPROPERTIES
CHARS 409
STARTCHAR uni000D
ENCODING 13
SWIDTH 144 0
DWIDTH 2 0
BBX 1 1 0 0
BITMAP
00
ENDCHAR
STARTCHAR space
ENCODING 32
SWIDTH 144 0
DWIDTH 2 0
BBX 1 1 0 0
BITMAP
00
ENDCHAR
STARTCHAR exclam
ENCODING 33
SWIDTH 424 0
DWIDTH 5 0
BBX 5 7 0 0
BITMAP
F0
D8
D8
F8
D8
F8
70
ENDCHAR
STARTCHAR quotedbl
ENCODING 34
SWIDTH 424 0
DWIDTH 5 0
BBX 5 7 0 0
BITMAP
F0
F8
F8
F8
F8
F8
70
ENDCHAR
STARTCHAR numbersign
ENCODING 35
SWIDTH 482 0
DWIDTH 5 0
BBX 5 7 0 0
BITMAP
F8
C8
F8
88
F8
F8
78
ENDCHAR
STARTCHAR dollar
ENCODING 36
SWIDTH 578 0
DWIDTH 6 0
BBX 6 7 0 0
BITMAP
FC
F4
CC
F4
CC
FC
7C
ENDCHAR
STARTCHAR percent
ENCODING 37
SWIDTH 578 0
DWIDTH 6 0
BBX 6 7 0 0
BITMAP
FC
EC
FC
FC
FC
FC
7C
ENDCHAR
STARTCHAR ampersand
ENCODING 38
SWIDTH 578 0
DWIDTH 6 0
BBX 6 7 0 0
BITMAP
FC
D4
E4
D4
CC
FC
7C
ENDCHAR
STARTCHAR quotesingle
ENCODING 39
SWIDTH 424 0
DWIDTH 5 0
BBX 5 7 0 0
BITMAP
F0
F8
F8
F8
F8
F8
70
ENDCHAR
STARTCHAR parenleft
ENCODING 40
SWIDTH 483 0
DWIDTH 5 0
BBX 5 7 0 0
BITMAP
F8
F8
F8
F8
F8
F8
78
ENDCHAR
STARTCHAR parenright
ENCODING 41
SWIDTH 483 0
DWIDTH 5 0
BBX 5 7 0 0
BITMAP
F8
E8
E8
E8
E8
F8
78
ENDCHAR
STARTCHAR asterisk
ENCODING 42
SWIDTH 428 0
DWIDTH 5 0
BBX 5 7 0 0
BITMAP
F0
88
F8
F8
F8
F8
70
ENDCHAR
STARTCHAR plus
ENCODING 43
SWIDTH 428 0
DWIDTH 5 0
BBX 5 7 0 0
BITMAP
F0
88
D8
F8
F8
F8
70
ENDCHAR
STARTCHAR comma
ENCODING 44
SWIDTH 428 0
DWIDTH 5 0
BBX 5 7 0 0
BITMAP
F0
F8
F8
F8
D8
F8
70
ENDCHAR
STARTCHAR hyphen
ENCODING 45
SWIDTH 428 0
DWIDTH 5 0
BBX 5 7 0 0
BITMAP
F0
98
F8
F8
F8
F8
70
ENDCHAR
STARTCHAR period
ENCODING 46
SWIDTH 428 0
DWIDTH 5 0
BBX 5 7 0 0
BITMAP
F0
F8
F8
F8
D8
F8
70
ENDCHAR
STARTCHAR slash
ENCODING 47
SWIDTH 428 0
DWIDTH 5 0
BBX 5 7 0 0
BITMAP
F0
D8
D8
F8
F8
F8
70
ENDCHAR
STARTCHAR zero
ENCODING 48
SWIDTH 578 0
DWIDTH 6 0
BBX 6 7 0 0
BITMAP
FC
FC
FC
FC
C4
FC
7C
ENDCHAR
STARTCHAR one
ENCODING 49
SWIDTH 578 0
DWIDTH 6 0
BBX 6 7 0 0
BITMAP
FC
EC
EC
EC
EC
FC
7C
ENDCHAR
STARTCHAR two
ENCODING 50
SWIDTH 578 0
DWIDTH 6 0
BBX 6 7 0 0
BITMAP
FC
F4
C4
FC
C4
FC
7C
ENDCHAR
STARTCHAR three
ENCODING 51
SWIDTH 578 0
DWIDTH 6 0
BBX 6 7 0 0
BITMAP
FC
F4
C4
F4
CC
FC
7C
ENDCHAR
STARTCHAR four
ENCODING 52
SWIDTH 578 0
DWIDTH 6 0
BBX 6 7 0 0
BITMAP
FC
DC
DC
E4
FC
FC
7C
ENDCHAR
STARTCHAR five
ENCODING 53
SWIDTH 578 0
DWIDTH 6 0
BBX 6 7 0 0
BITMAP
FC
FC
F4
F4
C4
FC
7C
ENDCHAR
STARTCHAR six
ENCODING 54
SWIDTH 578 0
DWIDTH 6 0
BBX 6 7 0 0
BITMAP
FC
FC
FC
FC
C4
FC
7C
ENDCHAR
STARTCHAR seven
ENCODING 55
SWIDTH 578 0
DWIDTH 6 0
BBX 6 7 0 0
BITMAP
FC
FC
EC
EC
FC
FC
7C
ENDCHAR
STARTCHAR eight
ENCODING 56
SWIDTH 578 0
DWIDTH 6 0
BBX 6 7 0 0
BITMAP
FC
F4
C4
F4
C4
FC
7C
ENDCHAR
STARTCHAR nine
ENCODING 57
SWIDTH 578 0
DWIDTH 6 0
BBX 6 7 0 0
BITMAP
FC
F4
C4
F4
CC
FC
7C
ENDCHAR
STARTCHAR colon
ENCODING 58
SWIDTH 428 0
DWIDTH 5 0
BBX 5 7 0 0
BITMAP
F0
F8
D8
F8
D8
F8
70
ENDCHAR
STARTCHAR semicolon
ENCODING 59
SWIDTH 428 0
DWIDTH 5 0
BBX 5 7 0 0
BITMAP
F0
F8
D8
F8
D8
F8
70
ENDCHAR
STARTCHAR less
ENCODING 60
SWIDTH 482 0
DWIDTH 5 0
BBX 5 7 0 1
BITMAP
F8
F8
D8
F8
D8
F8
F8
ENDCHAR
STARTCHAR equal
ENCODING 61
SWIDTH 482 0
DWIDTH 5 0
BBX 5 7 0 1
BITMAP
F8
F8
F8
F8
F8
F8
F8
ENDCHAR
STARTCHAR greater
ENCODING 62
SWIDTH 482 0
DWIDTH 5 0
BBX 5 7 0 1
BITMAP
F8
F8
D8
E8
F8
F8
F8
ENDCHAR
STARTCHAR question
ENCODING 63
SWIDTH 578 0
DWIDTH 6 0
BBX 6 7 0 0
BITMAP
FC
FC
E4
FC
EC
FC
7C
ENDCHAR
STARTCHAR at
ENCODING 64
SWIDTH 578 0
DWIDTH 6 0
BBX 6 7 0 0
BITMAP
FC
DC
EC
DC
BC
FC
7C
ENDCHAR
STARTCHAR A
ENCODING 65
SWIDTH 578 0
DWIDTH 6 0
BBX 6 7 0 0
BITMAP
FC
F4
C4
F4
F4
FC
7C
ENDCHAR
STARTCHAR B
ENCODING 66
SWIDTH 578 0
DWIDTH 6 0
BBX 6 7 0 0
BITMAP
FC
F4
CC
F4
CC
FC
7C
ENDCHAR
STARTCHAR C
ENCODING 67
SWIDTH 578 0
DWIDTH 6 0
BBX 6 7 0 0
BITMAP
FC
FC
FC
FC
CC
FC
7C
ENDCHAR
STARTCHAR D
ENCODING 68
SWIDTH 578 0
DWIDTH 6 0
BBX 6 7 0 0
BITMAP
FC
FC
FC
FC
C4
FC
7C
ENDCHAR
STARTCHAR E
ENCODING 69
SWIDTH 578 0
DWIDTH 6 0
BBX 6 7 0 0
BITMAP
FC
DC
C4
DC
C4
FC
7C
ENDCHAR
STARTCHAR F
ENCODING 70
SWIDTH 578 0
DWIDTH 6 0
BBX 6 7 0 0
BITMAP
FC
DC
CC
DC
DC
FC
7C
ENDCHAR
STARTCHAR G
ENCODING 71
SWIDTH 578 0
DWIDTH 6 0
BBX 6 7 0 0
BITMAP
FC
FC
F4
FC
C4
FC
7C
ENDCHAR
STARTCHAR H
ENCODING 72
SWIDTH 578 0
DWIDTH 6 0
BBX 6 7 0 0
BITMAP
FC
FC
C4
FC
FC
FC
7C
ENDCHAR
STARTCHAR I
ENCODING 73
SWIDTH 578 0
DWIDTH 6 0
BBX 6 7 0 0
BITMAP
FC
EC
EC
EC
C4
FC
7C
ENDCHAR
STARTCHAR J
ENCODING 74
SWIDTH 578 0
DWIDTH 6 0
BBX 6 7 0 0
BITMAP
FC
FC
FC
FC
CC
FC
7C
ENDCHAR
STARTCHAR K
ENCODING 75
SWIDTH 578 0
DWIDTH 6 0
BBX 6 7 0 0
BITMAP
FC
DC
CC
D4
DC
FC
7C
ENDCHAR
STARTCHAR L
ENCODING 76
SWIDTH 578 0
DWIDTH 6 0
BBX 6 7 0 0
BITMAP
FC
DC
DC
DC
C4
FC
7C
ENDCHAR
STARTCHAR M
ENCODING 77
SWIDTH 578 0
DWIDTH 6 0
BBX 6 7 0 0
BITMAP
FC
AC
AC
BC
BC
FC
7C
ENDCHAR
STARTCHAR N
ENCODING 78
SWIDTH 578 0
DWIDTH 6 0
BBX 6 7 0 0
BITMAP
FC
F4
F4
F4
F4
FC
7C
ENDCHAR
STARTCHAR O
ENCODING 79
SWIDTH 578 0
DWIDTH 6 0
BBX 6 7 0 0
BITMAP
FC
FC
FC
FC
C4
FC
7C
ENDCHAR
STARTCHAR P
ENCODING 80
SWIDTH 578 0
DWIDTH 6 0
BBX 6 7 0 0
BITMAP
FC
D4
C4
DC
DC
FC
7C
ENDCHAR
STARTCHAR Q
ENCODING 81
SWIDTH 578 0
DWIDTH 6 0
BBX 6 7 0 0
BITMAP
FC
FC
FC
EC
C4
FC
7C
ENDCHAR
STARTCHAR R
ENCODING 82
SWIDTH 578 0
DWIDTH 6 0
BBX 6 7 0 0
BITMAP
FC
F4
CC
F4
F4
FC
7C
ENDCHAR
STARTCHAR S
ENCODING 83
SWIDTH 578 0
DWIDTH 6 0
BBX 6 7 0 0
BITMAP
FC
FC
C4
F4
C4
FC
7C
ENDCHAR
STARTCHAR T
ENCODING 84
SWIDTH 578 0
DWIDTH 6 0
BBX 6 7 0 0
BITMAP
FC
EC
EC
EC
EC
FC
7C
ENDCHAR
STARTCHAR U
ENCODING 85
SWIDTH 578 0
DWIDTH 6 0
BBX 6 7 0 0
BITMAP
FC
FC
FC
FC
C4
FC
7C
ENDCHAR
STARTCHAR V
ENCODING 86
SWIDTH 578 0
DWIDTH 6 0
BBX 6 7 0 0
BITMAP
FC
D4
D4
FC
EC
FC
7C
ENDCHAR
STARTCHAR W
ENCODING 87
SWIDTH 578 0
DWIDTH 6 0
BBX 6 7 0 0
BITMAP
FC
AC
AC
FC
D4
FC
7C
ENDCHAR
STARTCHAR X
ENCODING 88
SWIDTH 578 0
DWIDTH 6 0
BBX 6 7 0 0
BITMAP
FC
DC
EC
D4
FC
FC
7C
ENDCHAR
STARTCHAR Y
ENCODING 89
SWIDTH 578 0
DWIDTH 6 0
BBX 6 7 0 0
BITMAP
FC
DC
EC
EC
EC
FC
7C
ENDCHAR
STARTCHAR Z
ENCODING 90
SWIDTH 578 0
DWIDTH 6 0
BBX 6 7 0 0
BITMAP
FC
FC
EC
DC
C4
FC
7C
ENDCHAR
STARTCHAR bracketleft
ENCODING 91
SWIDTH 484 0
DWIDTH 5 0
BBX 5 7 0 0
BITMAP
F8
D8
D8
D8
D8
F8
78
ENDCHAR
STARTCHAR backslash
ENCODING 92
SWIDTH 516 0
DWIDTH 6 0
BBX 6 7 0 0
BITMAP
F8
FC
FC
FC
EC
FC
78
ENDCHAR
STARTCHAR bracketright
ENCODING 93
SWIDTH 484 0
DWIDTH 5 0
BBX 5 7 0 0
BITMAP
F8
F8
F8
F8
F8
F8
78
ENDCHAR
STARTCHAR asciicircum
ENCODING 94
SWIDTH 355 0
DWIDTH 4 0
BBX 4 4 0 3
BITMAP
40
60
D0
F0
ENDCHAR
STARTCHAR underscore
ENCODING 95
SWIDTH 428 0
DWIDTH 5 0
BBX 5 7 0 0
BITMAP
F0
F8
F8
F8
F8
F8
70
ENDCHAR
STARTCHAR grave
ENCODING 96
SWIDTH 308 0
DWIDTH 3 0
BBX 3 4 0 0
BITMAP
40
A0
E0
60
ENDCHAR
STARTCHAR a
ENCODING 97
SWIDTH 578 0
DWIDTH 6 0
BBX 6 7 0 0
BITMAP
FC
F4
C4
F4
CC
FC
7C
ENDCHAR
STARTCHAR b
ENCODING 98
SWIDTH 578 0
DWIDTH 6 0
BBX 6 7 0 0
BITMAP
FC
F4
CC
F4
CC
FC
7C
ENDCHAR
STARTCHAR c
ENCODING 99
SWIDTH 578 0
DWIDTH 6 0
BBX 6 7 0 0
BITMAP
FC
FC
FC
FC
CC
FC
7C
ENDCHAR
STARTCHAR d
ENCODING 100
SWIDTH 578 0
DWIDTH 6 0
BBX 6 7 0 0
BITMAP
FC
FC
FC
FC
C4
FC
7C
ENDCHAR
STARTCHAR e
ENCODING 101
SWIDTH 578 0
DWIDTH 6 0
BBX 6 7 0 0
BITMAP
FC
F4
FC
FC
FC
FC
7C
ENDCHAR
STARTCHAR f
ENCODING 102
SWIDTH 578 0
DWIDTH 6 0
BBX 6 7 0 0
BITMAP
FC
DC
CC
DC
DC
FC
7C
ENDCHAR
STARTCHAR g
ENCODING 103
SWIDTH 578 0
DWIDTH 6 0
BBX 6 7 0 0
BITMAP
FC
FC
F4
FC
C4
FC
7C
ENDCHAR
STARTCHAR h
ENCODING 104
SWIDTH 578 0
DWIDTH 6 0
BBX 6 7 0 0
BITMAP
FC
FC
C4
FC
FC
FC
7C
ENDCHAR
STARTCHAR i
ENCODING 105
SWIDTH 578 0
DWIDTH 6 0
BBX 6 7 0 0
BITMAP
FC
EC
EC
EC
C4
FC
7C
ENDCHAR
STARTCHAR j
ENCODING 106
SWIDTH 578 0
DWIDTH 6 0
BBX 6 7 0 0
BITMAP
FC
FC
FC
FC
CC
FC
7C
ENDCHAR
STARTCHAR k
ENCODING 107
SWIDTH 578 0
DWIDTH 6 0
BBX 6 7 0 0
BITMAP
FC
DC
CC
D4
DC
FC
7C
ENDCHAR
STARTCHAR l
ENCODING 108
SWIDTH 578 0
DWIDTH 6 0
BBX 6 7 0 0
BITMAP
FC
DC
DC
DC
C4
FC
7C
ENDCHAR
STARTCHAR m
ENCODING 109
SWIDTH 578 0
DWIDTH 6 0
BBX 6 7 0 0
BITMAP
FC
AC
AC
BC
BC
FC
7C
ENDCHAR
STARTCHAR n
ENCODING 110
SWIDTH 578 0
DWIDTH 6 0
BBX 6 7 0 0
BITMAP
FC
F4
F4
F4
F4
FC
7C
ENDCHAR
STARTCHAR o
ENCODING 111
SWIDTH 578 0
DWIDTH 6 0
BBX 6 7 0 0
BITMAP
FC
FC
FC
FC
C4
FC
7C
ENDCHAR
STARTCHAR p
ENCODING 112
SWIDTH 578 0
DWIDTH 6 0
BBX 6 7 0 0
BITMAP
FC
D4
C4
DC
DC
FC
7C
ENDCHAR
STARTCHAR q
ENCODING 113
SWIDTH 578 0
DWIDTH 6 0
BBX 6 7 0 0
BITMAP
FC
FC
FC
EC
C4
FC
7C
ENDCHAR
STARTCHAR r
ENCODING 114
SWIDTH 578 0
DWIDTH 6 0
BBX 6 7 0 0
BITMAP
FC
F4
CC
F4
F4
FC
7C
ENDCHAR
STARTCHAR s
ENCODING 115
SWIDTH 578 0
DWIDTH 6 0
BBX 6 7 0 0
BITMAP
FC
FC
C4
F4
C4
FC
7C
ENDCHAR
STARTCHAR t
ENCODING 116
SWIDTH 578 0
DWIDTH 6 0
BBX 6 7 0 0
BITMAP
FC
EC
EC
EC
EC
FC
7C
ENDCHAR
STARTCHAR u
ENCODING 117
SWIDTH 578 0
DWIDTH 6 0
BBX 6 7 0 0
BITMAP
FC
FC
FC
FC
C4
FC
7C
ENDCHAR
STARTCHAR v
ENCODING 118
SWIDTH 578 0
DWIDTH 6 0
BBX 6 7 0 0
BITMAP
FC
D4
D4
FC
EC
FC
7C
ENDCHAR
STARTCHAR w
ENCODING 119
SWIDTH 578 0
DWIDTH 6 0
BBX 6 7 0 0
BITMAP
FC
AC
AC
FC
D4
FC
7C
ENDCHAR
STARTCHAR x
ENCODING 120
SWIDTH 578 0
DWIDTH 6 0
BBX 6 7 0 0
BITMAP
FC
DC
EC
D4
FC
FC
7C
ENDCHAR
STARTCHAR y
ENCODING 121
SWIDTH 578 0
DWIDTH 6 0
BBX 6 7 0 0
BITMAP
FC
DC
EC
EC
EC
FC
7C
ENDCHAR
STARTCHAR z
ENCODING 122
SWIDTH 578 0
DWIDTH 6 0
BBX 6 7 0 0
BITMAP
FC
FC
EC
DC
C4
FC
7C
ENDCHAR
STARTCHAR braceleft
ENCODING 123
SWIDTH 484 0
DWIDTH 5 0
BBX 5 7 0 0
BITMAP
F8
F8
B8
D8
D8
F8
78
ENDCHAR
STARTCHAR bar
ENCODING 124
SWIDTH 484 0
DWIDTH 5 0
BBX 5 7 0 0
BITMAP
D8
D8
D8
D8
D8
F8
78
ENDCHAR
STARTCHAR braceright
ENCODING 125
SWIDTH 484 0
DWIDTH 5 0
BBX 5 7 0 0
BITMAP
F8
F8
E8
F8
F8
F8
78
ENDCHAR
STARTCHAR asciitilde
ENCODING 126
SWIDTH 578 0
DWIDTH 6 0
BBX 6 7 0 0
BITMAP
FC
D4
FC
FC
FC
FC
7C
ENDCHAR
STARTCHAR uni00A0
ENCODING 160
SWIDTH 151 0
DWIDTH 2 0
BBX 1 1 0 0
BITMAP
00
ENDCHAR
STARTCHAR exclamdown
ENCODING 161
SWIDTH 424 0
DWIDTH 5 0
BBX 5 7 0 0
BITMAP
F0
D8
D8
D8
D8
F8
70
ENDCHAR
STARTCHAR cent
ENCODING 162
SWIDTH 578 0
DWIDTH 6 0
BBX 6 7 0 0
BITMAP
FC
EC
EC
EC
EC
FC
7C
ENDCHAR
STARTCHAR sterling
ENCODING 163
SWIDTH 578 0
DWIDTH 6 0
BBX 6 7 0 0
BITMAP
FC
DC
CC
DC
C4
FC
7C
ENDCHAR
STARTCHAR currency
ENCODING 164
SWIDTH 578 0
DWIDTH 6 0
BBX 6 7 0 0
BITMAP
FC
D4
D4
F4
FC
FC
7C
ENDCHAR
STARTCHAR yen
ENCODING 165
SWIDTH 578 0
DWIDTH 6 0
BBX 6 7 0 0
BITMAP
FC
DC
EC
DC
EC
FC
7C
ENDCHAR
STARTCHAR brokenbar
ENCODING 166
SWIDTH 484 0
DWIDTH 5 0
BBX 5 7 0 0
BITMAP
F8
D8
F8
D8
D8
F8
78
ENDCHAR
STARTCHAR section
ENCODING 167
SWIDTH 578 0
DWIDTH 6 0
BBX 6 7 0 0
BITMAP
FC
FC
DC
F4
F4
FC
7C
ENDCHAR
STARTCHAR dieresis
ENCODING 168
SWIDTH 388 0
DWIDTH 4 0
BBX 4 3 0 0
BITMAP
F0
B0
F0
ENDCHAR
STARTCHAR copyright
ENCODING 169
SWIDTH 578 0
DWIDTH 6 0
BBX 6 7 0 0
BITMAP
FC
DC
DC
DC
F4
FC
7C
ENDCHAR
STARTCHAR ordfeminine
ENCODING 170
SWIDTH 578 0
DWIDTH 6 0
BBX 6 7 0 0
BITMAP
FC
F4
D4
C4
FC
FC
7C
ENDCHAR
STARTCHAR guillemotleft
ENCODING 171
SWIDTH 578 0
DWIDTH 6 0
BBX 6 7 0 0
BITMAP
FC
DC
FC
EC
F4
FC
7C
ENDCHAR
STARTCHAR uni00AD
ENCODING 173
SWIDTH 428 0
DWIDTH 5 0
BBX 5 7 0 0
BITMAP
F0
98
F8
F8
F8
F8
70
ENDCHAR
STARTCHAR registered
ENCODING 174
SWIDTH 578 0
DWIDTH 6 0
BBX 6 7 0 0
BITMAP
FC
DC
CC
DC
F4
FC
7C
ENDCHAR
STARTCHAR macron
ENCODING 175
SWIDTH 428 0
DWIDTH 5 0
BBX 5 3 0 0
BITMAP
F0
98
F0
ENDCHAR
STARTCHAR degree
ENCODING 176
SWIDTH 428 0
DWIDTH 5 0
BBX 5 7 0 0
BITMAP
F0
B8
F8
F8
F8
F8
70
ENDCHAR
STARTCHAR plusminus
ENCODING 177
SWIDTH 428 0
DWIDTH 5 0
BBX 5 7 0 0
BITMAP
F0
88
D8
B8
F8
F8
70
ENDCHAR
STARTCHAR uni00B2
ENCODING 178
SWIDTH 578 0
DWIDTH 6 0
BBX 6 7 0 0
BITMAP
FC
EC
DC
FC
FC
FC
7C
ENDCHAR
STARTCHAR uni00B3
ENCODING 179
SWIDTH 578 0
DWIDTH 6 0
BBX 6 7 0 0
BITMAP
FC
E4
D4
FC
FC
FC
7C
ENDCHAR
STARTCHAR acute
ENCODING 180
SWIDTH 308 0
DWIDTH 3 0
BBX 3 4 0 0
BITMAP
60
A0
A0
C0
ENDCHAR
STARTCHAR uni00B5
ENCODING 181
SWIDTH 578 0
DWIDTH 6 0
BBX 6 7 0 0
BITMAP
FC
F4
F4
F4
CC
FC
7C
ENDCHAR
STARTCHAR paragraph
ENCODING 182
SWIDTH 578 0
DWIDTH 6 0
BBX 6 7 0 0
BITMAP
FC
CC
EC
EC
FC
FC
7C
ENDCHAR
STARTCHAR periodcentered
ENCODING 183
SWIDTH 428 0
DWIDTH 5 0
BBX 5 7 0 0
BITMAP
F0
D8
F8
F8
F8
F8
70
ENDCHAR
STARTCHAR cedilla
ENCODING 184
SWIDTH 101 0
DWIDTH 1 0
BBX 1 2 0 -2
BITMAP
80
80
ENDCHAR
STARTCHAR uni00B9
ENCODING 185
SWIDTH 578 0
DWIDTH 6 0
BBX 6 7 0 0
BITMAP
FC
EC
EC
FC
FC
FC
7C
ENDCHAR
STARTCHAR ordmasculine
ENCODING 186
SWIDTH 578 0
DWIDTH 6 0
BBX 6 7 0 0
BITMAP
FC
D4
D4
C4
FC
FC
7C
ENDCHAR
STARTCHAR guillemotright
ENCODING 187
SWIDTH 578 0
DWIDTH 6 0
BBX 6 7 0 0
BITMAP
FC
DC
F4
FC
EC
FC
7C
ENDCHAR
STARTCHAR onequarter
ENCODING 188
SWIDTH 578 0
DWIDTH 6 0
BBX 6 7 0 0
BITMAP
FC
FC
EC
DC
DC
FC
7C
ENDCHAR
STARTCHAR onehalf
ENCODING 189
SWIDTH 578 0
DWIDTH 6 0
BBX 6 7 0 0
BITMAP
FC
FC
EC
DC
D4
FC
7C
ENDCHAR
STARTCHAR threequarters
ENCODING 190
SWIDTH 578 0
DWIDTH 6 0
BBX 6 7 0 0
BITMAP
FC
FC
FC
DC
D4
FC
7C
ENDCHAR
STARTCHAR questiondown
ENCODING 191
SWIDTH 578 0
DWIDTH 6 0
BBX 6 7 0 0
BITMAP
FC
EC
FC
FC
FC
FC
7C
ENDCHAR
STARTCHAR Agrave
ENCODING 192
SWIDTH 578 0
DWIDTH 6 0
BBX 6 11 0 0
BITMAP
30
50
70
30
CC
F4
C4
F4
F4
FC
7C
ENDCHAR
STARTCHAR Aacute
ENCODING 193
SWIDTH 578 0
DWIDTH 6 0
BBX 6 11 0 0
BITMAP
18
28
28
30
CC
F4
C4
F4
F4
FC
7C
ENDCHAR
STARTCHAR Acircumflex
ENCODING 194
SWIDTH 578 0
DWIDTH 6 0
BBX 6 11 0 0
BITMAP
30
28
78
78
C4
F4
C4
F4
F4
FC
7C
ENDCHAR
STARTCHAR Atilde
ENCODING 195
SWIDTH 578 0
DWIDTH 6 0
BBX 6 11 0 0
BITMAP
10
78
7C
78
C4
F4
C4
F4
F4
FC
7C
ENDCHAR
STARTCHAR Adieresis
ENCODING 196
SWIDTH 578 0
DWIDTH 6 0
BBX 6 10 0 0
BITMAP
38
5C
38
C4
F4
C4
F4
F4
FC
7C
ENDCHAR
STARTCHAR Aring
ENCODING 197
SWIDTH 578 0
DWIDTH 6 0
BBX 6 10 0 0
BITMAP
38
58
78
C4
F4
C4
F4
F4
FC
7C
ENDCHAR
STARTCHAR AE
ENCODING 198
SWIDTH 578 0
DWIDTH 6 0
BBX 6 7 0 0
BITMAP
FC
EC
E4
8C
A4
FC
7C
ENDCHAR
STARTCHAR Ccedilla
ENCODING 199
SWIDTH 578 0
DWIDTH 6 0
BBX 6 7 0 0
BITMAP
FC
FC
FC
FC
EC
DC
7C
ENDCHAR
STARTCHAR Egrave
ENCODING 200
SWIDTH 578 0
DWIDTH 6 0
BBX 6 11 0 0
BITMAP
30
50
30
38
C4
DC
C4
DC
C4
FC
7C
ENDCHAR
STARTCHAR Eacute
ENCODING 201
SWIDTH 578 0
DWIDTH 6 0
BBX 6 11 0 0
BITMAP
18
3C
28
38
C4
DC
C4
DC
C4
FC
7C
ENDCHAR
STARTCHAR Ecircumflex
ENCODING 202
SWIDTH 578 0
DWIDTH 6 0
BBX 6 11 0 0
BITMAP
30
28
38
78
C4
DC
C4
DC
C4
FC
7C
ENDCHAR
STARTCHAR Edieresis
ENCODING 203
SWIDTH 578 0
DWIDTH 6 0
BBX 6 10 0 0
BITMAP
38
5C
38
C4
DC
C4
DC
C4
FC
7C
ENDCHAR
STARTCHAR Igrave
ENCODING 204
SWIDTH 578 0
DWIDTH 6 0
BBX 6 11 0 0
BITMAP
30
50
38
38
C4
EC
EC
EC
C4
FC
7C
ENDCHAR
STARTCHAR Iacute
ENCODING 205
SWIDTH 578 0
DWIDTH 6 0
BBX 6 11 0 0
BITMAP
18
3C
28
38
C4
EC
EC
EC
C4
FC
7C
ENDCHAR
STARTCHAR Icircumflex
ENCODING 206
SWIDTH 578 0
DWIDTH 6 0
BBX 6 11 0 0
BITMAP
38
38
38
78
C4
EC
EC
EC
C4
FC
7C
ENDCHAR
STARTCHAR Idieresis
ENCODING 207
SWIDTH 578 0
DWIDTH 6 0
BBX 6 10 0 0
BITMAP
38
5C
38
C4
EC
EC
EC
C4
FC
7C
ENDCHAR
STARTCHAR Eth
ENCODING 208
SWIDTH 578 0
DWIDTH 6 0
BBX 6 7 0 0
BITMAP
FC
FC
FC
FC
C4
FC
7C
ENDCHAR
STARTCHAR Ntilde
ENCODING 209
SWIDTH 578 0
DWIDTH 6 0
BBX 6 11 0 0
BITMAP
10
78
7C
78
C4
F4
F4
F4
F4
FC
7C
ENDCHAR
STARTCHAR Ograve
ENCODING 210
SWIDTH 578 0
DWIDTH 6 0
BBX 6 11 0 0
BITMAP
30
50
30
38
C4
FC
FC
FC
C4
FC
7C
ENDCHAR
STARTCHAR Oacute
ENCODING 211
SWIDTH 578 0
DWIDTH 6 0
BBX 6 11 0 0
BITMAP
18
38
28
38
C4
FC
FC
FC
C4
FC
7C
ENDCHAR
STARTCHAR Ocircumflex
ENCODING 212
SWIDTH 578 0
DWIDTH 6 0
BBX 6 11 0 0
BITMAP
30
28
78
38
C4
FC
FC
FC
C4
FC
7C
ENDCHAR
STARTCHAR Otilde
ENCODING 213
SWIDTH 578 0
DWIDTH 6 0
BBX 6 11 0 0
BITMAP
10
7C
74
7C
C4
FC
FC
FC
C4
FC
7C
ENDCHAR
STARTCHAR Odieresis
ENCODING 214
SWIDTH 578 0
DWIDTH 6 0
BBX 6 10 0 0
BITMAP
38
5C
38
C4
FC
FC
FC
C4
FC
7C
ENDCHAR
STARTCHAR multiply
ENCODING 215
SWIDTH 578 0
DWIDTH 6 0
BBX 6 7 0 0
BITMAP
FC
DC
EC
FC
FC
FC
7C
ENDCHAR
STARTCHAR Oslash
ENCODING 216
SWIDTH 578 0
DWIDTH 6 0
BBX 6 7 0 0
BITMAP
FC
F4
EC
D4
CC
FC
7C
ENDCHAR
STARTCHAR Ugrave
ENCODING 217
SWIDTH 578 0
DWIDTH 6 0
BBX 6 11 0 0
BITMAP
30
50
38
30
FC
FC
FC
FC
C4
FC
7C
ENDCHAR
STARTCHAR Uacute
ENCODING 218
SWIDTH 578 0
DWIDTH 6 0
BBX 6 11 0 0
BITMAP
18
3C
28
30
FC
FC
FC
FC
C4
FC
7C
ENDCHAR
STARTCHAR Ucircumflex
ENCODING 219
SWIDTH 578 0
DWIDTH 6 0
BBX 6 11 0 0
BITMAP
30
28
38
78
FC
FC
FC
FC
C4
FC
7C
ENDCHAR
STARTCHAR Udieresis
ENCODING 220
SWIDTH 578 0
DWIDTH 6 0
BBX 6 10 0 0
BITMAP
38
5C
38
FC
FC
FC
FC
C4
FC
7C
ENDCHAR
STARTCHAR Yacute
ENCODING 221
SWIDTH 578 0
DWIDTH 6 0
BBX 6 11 0 0
BITMAP
18
38
28
38
D4
DC
EC
EC
EC
FC
7C
ENDCHAR
STARTCHAR Thorn
ENCODING 222
SWIDTH 578 0
DWIDTH 6 0
BBX 6 7 0 0
BITMAP
FC
D4
D4
DC
DC
FC
7C
ENDCHAR
STARTCHAR germandbls
ENCODING 223
SWIDTH 578 0
DWIDTH 6 0
BBX 6 7 0 0
BITMAP
FC
F4
FC
FC
E4
FC
7C
ENDCHAR
STARTCHAR agrave
ENCODING 224
SWIDTH 578 0
DWIDTH 6 0
BBX 6 11 0 0
BITMAP
30
50
38
30
CC
F4
C4
F4
CC
FC
7C
ENDCHAR
STARTCHAR aacute
ENCODING 225
SWIDTH 578 0
DWIDTH 6 0
BBX 6 11 0 0
BITMAP
18
3C
28
30
CC
F4
C4
F4
CC
FC
7C
ENDCHAR
STARTCHAR acircumflex
ENCODING 226
SWIDTH 578 0
DWIDTH 6 0
BBX 6 11 0 0
BITMAP
30
28
38
78
C4
F4
C4
F4
CC
FC
7C
ENDCHAR
STARTCHAR atilde
ENCODING 227
SWIDTH 578 0
DWIDTH 6 0
BBX 6 11 0 0
BITMAP
10
7C
74
7C
C4
F4
C4
F4
CC
FC
7C
ENDCHAR
STARTCHAR adieresis
ENCODING 228
SWIDTH 578 0
DWIDTH 6 0
BBX 6 10 0 0
BITMAP
38
5C
38
C4
F4
C4
F4
CC
FC
7C
ENDCHAR
STARTCHAR aring
ENCODING 229
SWIDTH 578 0
DWIDTH 6 0
BBX 6 10 0 0
BITMAP
38
58
38
C4
F4
C4
F4
CC
FC
7C
ENDCHAR
STARTCHAR ae
ENCODING 230
SWIDTH 578 0
DWIDTH 6 0
BBX 6 7 0 0
BITMAP
FC
EC
E4
8C
A4
FC
7C
ENDCHAR
STARTCHAR ccedilla
ENCODING 231
SWIDTH 578 0
DWIDTH 6 0
BBX 6 7 0 0
BITMAP
FC
FC
FC
FC
EC
DC
7C
ENDCHAR
STARTCHAR egrave
ENCODING 232
SWIDTH 578 0
DWIDTH 6 0
BBX 6 11 0 0
BITMAP
30
50
38
30
CC
F4
FC
FC
FC
FC
7C
ENDCHAR
STARTCHAR eacute
ENCODING 233
SWIDTH 578 0
DWIDTH 6 0
BBX 6 11 0 0
BITMAP
18
28
28
30
CC
F4
FC
FC
FC
FC
7C
ENDCHAR
STARTCHAR ecircumflex
ENCODING 234
SWIDTH 578 0
DWIDTH 6 0
BBX 6 11 0 0
BITMAP
30
28
58
78
C4
F4
FC
FC
FC
FC
7C
ENDCHAR
STARTCHAR edieresis
ENCODING 235
SWIDTH 578 0
DWIDTH 6 0
BBX 6 10 0 0
BITMAP
78
58
78
C4
F4
FC
FC
FC
FC
7C
ENDCHAR
STARTCHAR igrave
ENCODING 236
SWIDTH 578 0
DWIDTH 6 0
BBX 6 11 0 0
BITMAP
30
50
30
38
C4
EC
EC
EC
C4
FC
7C
ENDCHAR
STARTCHAR iacute
ENCODING 237
SWIDTH 578 0
DWIDTH 6 0
BBX 6 11 0 0
BITMAP
18
3C
28
38
C4
EC
EC
EC
C4
FC
7C
ENDCHAR
STARTCHAR icircumflex
ENCODING 238
SWIDTH 578 0
DWIDTH 6 0
BBX 6 11 0 0
BITMAP
30
28
38
78
C4
EC
EC
EC
C4
FC
7C
ENDCHAR
STARTCHAR idieresis
ENCODING 239
SWIDTH 578 0
DWIDTH 6 0
BBX 6 10 0 0
BITMAP
38
5C
38
C4
EC
EC
EC
C4
FC
7C
ENDCHAR
STARTCHAR eth
ENCODING 240
SWIDTH 578 0
DWIDTH 6 0
BBX 6 7 0 0
BITMAP
FC
FC
FC
FC
C4
FC
7C
ENDCHAR
STARTCHAR ntilde
ENCODING 241
SWIDTH 578 0
DWIDTH 6 0
BBX 6 11 0 0
BITMAP
10
78
7C
78
C4
F4
F4
F4
F4
FC
7C
ENDCHAR
STARTCHAR oacute
ENCODING 243
SWIDTH 578 0
DWIDTH 6 0
BBX 6 11 0 0
BITMAP
18
28
28
38
C4
FC
FC
FC
C4
FC
7C
ENDCHAR
STARTCHAR ocircumflex
ENCODING 244
SWIDTH 578 0
DWIDTH 6 0
BBX 6 11 0 0
BITMAP
30
28
38
78
C4
FC
FC
FC
C4
FC
7C
ENDCHAR
STARTCHAR otilde
ENCODING 245
SWIDTH 578 0
DWIDTH 6 0
BBX 6 11 0 0
BITMAP
10
78
7C
78
C4
FC
FC
FC
C4
FC
7C
ENDCHAR
STARTCHAR odieresis
ENCODING 246
SWIDTH 578 0
DWIDTH 6 0
BBX 6 10 0 0
BITMAP
38
5C
38
C4
FC
FC
FC
C4
FC
7C
ENDCHAR
STARTCHAR divide
ENCODING 247
SWIDTH 428 0
DWIDTH 5 0
BBX 5 7 0 0
BITMAP
F0
98
F8
F8
F8
F8
70
ENDCHAR
STARTCHAR oslash
ENCODING 248
SWIDTH 578 0
DWIDTH 6 0
BBX 6 7 0 0
BITMAP
FC
F4
EC
D4
CC
FC
7C
ENDCHAR
STARTCHAR ugrave
ENCODING 249
SWIDTH 578 0
DWIDTH 6 0
BBX 6 11 0 0
BITMAP
30
50
38
30
FC
FC
FC
FC
C4
FC
7C
ENDCHAR
STARTCHAR uacute
ENCODING 250
SWIDTH 578 0
DWIDTH 6 0
BBX 6 11 0 0
BITMAP
18
3C
28
30
FC
FC
FC
FC
C4
FC
7C
ENDCHAR
STARTCHAR ucircumflex
ENCODING 251
SWIDTH 578 0
DWIDTH 6 0
BBX 6 11 0 0
BITMAP
30
28
38
78
FC
FC
FC
FC
C4
FC
7C
ENDCHAR
STARTCHAR udieresis
ENCODING 252
SWIDTH 578 0
DWIDTH 6 0
BBX 6 10 0 0
BITMAP
38
5C
38
FC
FC
FC
FC
C4
FC
7C
ENDCHAR
STARTCHAR yacute
ENCODING 253
SWIDTH 578 0
DWIDTH 6 0
BBX 6 11 0 0
BITMAP
18
38
28
38
D4
DC
EC
EC
EC
FC
7C
ENDCHAR
STARTCHAR thorn
ENCODING 254
SWIDTH 578 0
DWIDTH 6 0
BBX 6 7 0 0
BITMAP
FC
D4
D4
DC
DC
FC
7C
ENDCHAR
STARTCHAR ydieresis
ENCODING 255
SWIDTH 578 0
DWIDTH 6 0
BBX 6 10 0 0
BITMAP
38
5C
38
D4
DC
EC
EC
EC
FC
7C
ENDCHAR
STARTCHAR Amacron
ENCODING 256
SWIDTH 578 0
DWIDTH 6 0
BBX 6 10 0 0
BITMAP
78
4C
78
C4
F4
C4
F4
F4
FC
7C
ENDCHAR
STARTCHAR amacron
ENCODING 257
SWIDTH 578 0
DWIDTH 6 0
BBX 6 10 0 0
BITMAP
78
4C
78
C4
F4
C4
F4
CC
FC
7C
ENDCHAR
STARTCHAR Abreve
ENCODING 258
SWIDTH 578 0
DWIDTH 6 0
BBX 6 10 0 0
BITMAP
78
5C
78
C4
F4
C4
F4
F4
FC
7C
ENDCHAR
STARTCHAR abreve
ENCODING 259
SWIDTH 578 0
DWIDTH 6 0
BBX 6 10 0 0
BITMAP
78
5C
78
C4
F4
C4
F4
CC
FC
7C
ENDCHAR
STARTCHAR Aogonek
ENCODING 260
SWIDTH 578 0
DWIDTH 6 0
BBX 6 7 0 0
BITMAP
FC
F4
C4
F4
F4
FC
7C
ENDCHAR
STARTCHAR aogonek
ENCODING 261
SWIDTH 578 0
DWIDTH 6 0
BBX 6 7 0 0
BITMAP
FC
F4
C4
F4
C4
FC
7C
ENDCHAR
STARTCHAR Cacute
ENCODING 262
SWIDTH 578 0
DWIDTH 6 0
BBX 6 11 0 0
BITMAP
18
3C
28
38
C4
FC
FC
FC
CC
FC
7C
ENDCHAR
STARTCHAR cacute
ENCODING 263
SWIDTH 578 0
DWIDTH 6 0
BBX 6 11 0 0
BITMAP
18
3C
28
38
C4
FC
FC
FC
CC
FC
7C
ENDCHAR
STARTCHAR Ccircumflex
ENCODING 264
SWIDTH 578 0
DWIDTH 6 0
BBX 6 11 0 0
BITMAP
30
28
78
78
C4
FC
FC
FC
CC
FC
7C
ENDCHAR
STARTCHAR ccircumflex
ENCODING 265
SWIDTH 578 0
DWIDTH 6 0
BBX 6 11 0 0
BITMAP
30
28
78
78
C4
FC
FC
FC
CC
FC
7C
ENDCHAR
STARTCHAR Cdotaccent
ENCODING 266
SWIDTH 578 0
DWIDTH 6 0
BBX 6 10 0 0
BITMAP
78
78
78
C4
FC
FC
FC
CC
FC
7C
ENDCHAR
STARTCHAR cdotaccent
ENCODING 267
SWIDTH 578 0
DWIDTH 6 0
BBX 6 10 0 0
BITMAP
78
6C
78
C4
FC
FC
FC
CC
FC
7C
ENDCHAR
STARTCHAR Ccaron
ENCODING 268
SWIDTH 578 0
DWIDTH 6 0
BBX 6 11 0 0
BITMAP
38
58
68
38
C4
FC
FC
FC
CC
FC
7C
ENDCHAR
STARTCHAR ccaron
ENCODING 269
SWIDTH 578 0
DWIDTH 6 0
BBX 6 11 0 0
BITMAP
28
58
68
38
C4
FC
FC
FC
CC
FC
7C
ENDCHAR
STARTCHAR Dcaron
ENCODING 270
SWIDTH 578 0
DWIDTH 6 0
BBX 6 11 0 0
BITMAP
28
58
68
38
C4
FC
FC
FC
C4
FC
7C
ENDCHAR
STARTCHAR dcaron
ENCODING 271
SWIDTH 578 0
DWIDTH 6 0
BBX 6 7 0 0
BITMAP
FC
BC
BC
BC
8C
FC
7C
ENDCHAR
STARTCHAR Dcroat
ENCODING 272
SWIDTH 578 0
DWIDTH 6 0
BBX 6 7 0 0
BITMAP
FC
FC
FC
FC
C4
FC
7C
ENDCHAR
STARTCHAR dcroat
ENCODING 273
SWIDTH 578 0
DWIDTH 6 0
BBX 6 7 0 0
BITMAP
FC
FC
FC
FC
C4
FC
7C
ENDCHAR
STARTCHAR Emacron
ENCODING 274
SWIDTH 578 0
DWIDTH 6 0
BBX 6 10 0 0
BITMAP
78
4C
78
C4
DC
C4
DC
C4
FC
7C
ENDCHAR
STARTCHAR emacron
ENCODING 275
SWIDTH 578 0
DWIDTH 6 0
BBX 6 10 0 0
BITMAP
78
4C
78
C4
F4
FC
FC
FC
FC
7C
ENDCHAR
STARTCHAR Ebreve
ENCODING 276
SWIDTH 578 0
DWIDTH 6 0
BBX 6 10 0 0
BITMAP
78
5C
78
C4
DC
C4
DC
C4
FC
7C
ENDCHAR
STARTCHAR ebreve
ENCODING 277
SWIDTH 578 0
DWIDTH 6 0
BBX 6 10 0 0
BITMAP
78
5C
78
C4
F4
FC
FC
FC
FC
7C
ENDCHAR
STARTCHAR Edotaccent
ENCODING 278
SWIDTH 578 0
DWIDTH 6 0
BBX 6 10 0 0
BITMAP
78
6C
7C
C4
DC
C4
DC
C4
FC
7C
ENDCHAR
STARTCHAR edotaccent
ENCODING 279
SWIDTH 578 0
DWIDTH 6 0
BBX 6 10 0 0
BITMAP
78
6C
78
C4
F4
FC
FC
FC
FC
7C
ENDCHAR
STARTCHAR Eogonek
ENCODING 280
SWIDTH 578 0
DWIDTH 6 0
BBX 6 7 0 0
BITMAP
FC
DC
C4
DC
C4
FC
7C
ENDCHAR
STARTCHAR eogonek
ENCODING 281
SWIDTH 578 0
DWIDTH 6 0
BBX 6 7 0 0
BITMAP
FC
F4
FC
FC
EC
FC
7C
ENDCHAR
STARTCHAR Ecaron
ENCODING 282
SWIDTH 578 0
DWIDTH 6 0
BBX 6 11 0 0
BITMAP
28
78
38
38
C4
DC
C4
DC
C4
FC
7C
ENDCHAR
STARTCHAR ecaron
ENCODING 283
SWIDTH 578 0
DWIDTH 6 0
BBX 6 11 0 0
BITMAP
28
58
68
38
C4
F4
FC
FC
FC
FC
7C
ENDCHAR
STARTCHAR Gcircumflex
ENCODING 284
SWIDTH 578 0
DWIDTH 6 0
BBX 6 11 0 0
BITMAP
30
28
78
78
C4
FC
F4
FC
C4
FC
7C
ENDCHAR
STARTCHAR gcircumflex
ENCODING 285
SWIDTH 578 0
DWIDTH 6 0
BBX 6 11 0 0
BITMAP
30
28
78
78
C4
FC
F4
FC
C4
FC
7C
ENDCHAR
STARTCHAR Gbreve
ENCODING 286
SWIDTH 578 0
DWIDTH 6 0
BBX 6 10 0 0
BITMAP
78
5C
78
C4
FC
F4
FC
C4
FC
7C
ENDCHAR
STARTCHAR gbreve
ENCODING 287
SWIDTH 578 0
DWIDTH 6 0
BBX 6 10 0 0
BITMAP
78
5C
78
C4
FC
F4
FC
C4
FC
7C
ENDCHAR
STARTCHAR Gdotaccent
ENCODING 288
SWIDTH 578 0
DWIDTH 6 0
BBX 6 10 0 0
BITMAP
78
6C
78
C4
FC
F4
FC
C4
FC
7C
ENDCHAR
STARTCHAR gdotaccent
ENCODING 289
SWIDTH 578 0
DWIDTH 6 0
BBX 6 10 0 0
BITMAP
78
6C
78
C4
FC
F4
FC
C4
FC
7C
ENDCHAR
STARTCHAR Gcommaaccent
ENCODING 290
SWIDTH 578 0
DWIDTH 6 0
BBX 6 7 0 0
BITMAP
FC
FC
F4
FC
D4
EC
7C
ENDCHAR
STARTCHAR gcommaaccent
ENCODING 291
SWIDTH 578 0
DWIDTH 6 0
BBX 6 7 0 0
BITMAP
FC
FC
F4
FC
D4
EC
7C
ENDCHAR
STARTCHAR Hcircumflex
ENCODING 292
SWIDTH 578 0
DWIDTH 6 0
BBX 6 11 0 0
BITMAP
30
28
78
78
FC
FC
C4
FC
FC
FC
7C
ENDCHAR
STARTCHAR hcircumflex
ENCODING 293
SWIDTH 578 0
DWIDTH 6 0
BBX 6 11 0 0
BITMAP
30
28
78
78
FC
FC
C4
FC
FC
FC
7C
ENDCHAR
STARTCHAR Hbar
ENCODING 294
SWIDTH 578 0
DWIDTH 6 0
BBX 6 10 0 0
BITMAP
78
4C
78
FC
FC
C4
FC
FC
FC
7C
ENDCHAR
STARTCHAR hbar
ENCODING 295
SWIDTH 578 0
DWIDTH 6 0
BBX 6 7 0 0
BITMAP
FC
FC
C4
FC
FC
FC
7C
ENDCHAR
STARTCHAR Itilde
ENCODING 296
SWIDTH 578 0
DWIDTH 6 0
BBX 6 11 0 0
BITMAP
10
7C
74
7C
C4
EC
EC
EC
C4
FC
7C
ENDCHAR
STARTCHAR itilde
ENCODING 297
SWIDTH 578 0
DWIDTH 6 0
BBX 6 11 0 0
BITMAP
10
7C
74
7C
C4
EC
EC
EC
C4
FC
7C
ENDCHAR
STARTCHAR Imacron
ENCODING 298
SWIDTH 578 0
DWIDTH 6 0
BBX 6 10 0 0
BITMAP
78
4C
78
C4
EC
EC
EC
C4
FC
7C
ENDCHAR
STARTCHAR imacron
ENCODING 299
SWIDTH 578 0
DWIDTH 6 0
BBX 6 10 0 0
BITMAP
78
4C
78
C4
EC
EC
EC
C4
FC
7C
ENDCHAR
STARTCHAR Ibreve
ENCODING 300
SWIDTH 578 0
DWIDTH 6 0
BBX 6 10 0 0
BITMAP
38
7C
7C
C4
EC
EC
EC
C4
FC
7C
ENDCHAR
STARTCHAR ibreve
ENCODING 301
SWIDTH 578 0
DWIDTH 6 0
BBX 6 10 0 0
BITMAP
38
5C
78
C4
EC
EC
EC
C4
FC
7C
ENDCHAR
STARTCHAR Iogonek
ENCODING 302
SWIDTH 578 0
DWIDTH 6 0
BBX 6 7 0 0
BITMAP
FC
EC
EC
EC
C4
FC
7C
ENDCHAR
STARTCHAR iogonek
ENCODING 303
SWIDTH 578 0
DWIDTH 6 0
BBX 6 7 0 0
BITMAP
FC
EC
EC
EC
C4
FC
7C
ENDCHAR
STARTCHAR Idotaccent
ENCODING 304
SWIDTH 578 0
DWIDTH 6 0
BBX 6 10 0 0
BITMAP
78
6C
78
C4
EC
EC
EC
C4
FC
7C
ENDCHAR
STARTCHAR dotlessi
ENCODING 305
SWIDTH 578 0
DWIDTH 6 0
BBX 6 7 0 0
BITMAP
FC
EC
EC
EC
C4
FC
7C
ENDCHAR
STARTCHAR IJ
ENCODING 306
SWIDTH 578 0
DWIDTH 6 0
BBX 6 7 0 0
BITMAP
FC
FC
FC
FC
94
FC
7C
ENDCHAR
STARTCHAR ij
ENCODING 307
SWIDTH 578 0
DWIDTH 6 0
BBX 6 7 0 0
BITMAP
FC
FC
FC
FC
94
FC
7C
ENDCHAR
STARTCHAR Jcircumflex
ENCODING 308
SWIDTH 578 0
DWIDTH 6 0
BBX 6 11 0 0
BITMAP
30
28
78
38
FC
FC
FC
FC
CC
FC
7C
ENDCHAR
STARTCHAR jcircumflex
ENCODING 309
SWIDTH 578 0
DWIDTH 6 0
BBX 6 11 0 0
BITMAP
30
28
78
38
FC
FC
FC
FC
CC
FC
7C
ENDCHAR
STARTCHAR Kcommaaccent
ENCODING 310
SWIDTH 578 0
DWIDTH 6 0
BBX 6 7 0 0
BITMAP
FC
DC
CC
D4
DC
EC
7C
ENDCHAR
STARTCHAR kcommaaccent
ENCODING 311
SWIDTH 578 0
DWIDTH 6 0
BBX 6 7 0 0
BITMAP
FC
DC
CC
D4
DC
EC
7C
ENDCHAR
STARTCHAR kgreenlandic
ENCODING 312
SWIDTH 578 0
DWIDTH 6 0
BBX 6 7 0 0
BITMAP
FC
DC
CC
D4
DC
FC
7C
ENDCHAR
STARTCHAR Lacute
ENCODING 313
SWIDTH 578 0
DWIDTH 6 0
BBX 6 11 0 0
BITMAP
30
28
70
30
DC
DC
DC
DC
C4
FC
7C
ENDCHAR
STARTCHAR lacute
ENCODING 314
SWIDTH 578 0
DWIDTH 6 0
BBX 6 11 0 0
BITMAP
30
28
70
30
DC
DC
DC
DC
C4
FC
7C
ENDCHAR
STARTCHAR Lcommaaccent
ENCODING 315
SWIDTH 578 0
DWIDTH 6 0
BBX 6 7 0 0
BITMAP
FC
DC
DC
DC
D4
EC
7C
ENDCHAR
STARTCHAR lcommaaccent
ENCODING 316
SWIDTH 578 0
DWIDTH 6 0
BBX 6 7 0 0
BITMAP
FC
DC
DC
DC
D4
EC
7C
ENDCHAR
STARTCHAR Lcaron
ENCODING 317
SWIDTH 578 0
DWIDTH 6 0
BBX 6 7 0 0
BITMAP
FC
DC
DC
DC
C4
FC
7C
ENDCHAR
STARTCHAR lcaron
ENCODING 318
SWIDTH 578 0
DWIDTH 6 0
BBX 6 7 0 0
BITMAP
FC
DC
DC
DC
C4
FC
7C
ENDCHAR
STARTCHAR Ldot
ENCODING 319
SWIDTH 578 0
DWIDTH 6 0
BBX 6 7 0 0
BITMAP
FC
DC
DC
DC
C4
FC
7C
ENDCHAR
STARTCHAR ldot
ENCODING 320
SWIDTH 578 0
DWIDTH 6 0
BBX 6 7 0 0
BITMAP
FC
DC
DC
DC
C4
FC
7C
ENDCHAR
STARTCHAR Lslash
ENCODING 321
SWIDTH 578 0
DWIDTH 6 0
BBX 6 7 0 0
BITMAP
FC
DC
DC
DC
C4
FC
7C
ENDCHAR
STARTCHAR lslash
ENCODING 322
SWIDTH 578 0
DWIDTH 6 0
BBX 6 7 0 0
BITMAP
FC
DC
DC
DC
C4
FC
7C
ENDCHAR
STARTCHAR Nacute
ENCODING 323
SWIDTH 578 0
DWIDTH 6 0
BBX 6 11 0 0
BITMAP
18
28
28
38
C4
F4
F4
F4
F4
FC
7C
ENDCHAR
STARTCHAR nacute
ENCODING 324
SWIDTH 578 0
DWIDTH 6 0
BBX 6 11 0 0
BITMAP
18
28
28
38
C4
F4
F4
F4
F4
FC
7C
ENDCHAR
STARTCHAR Ncommaaccent
ENCODING 325
SWIDTH 578 0
DWIDTH 6 0
BBX 6 7 0 0
BITMAP
FC
F4
F4
F4
F4
EC
7C
ENDCHAR
STARTCHAR ncommaaccent
ENCODING 326
SWIDTH 578 0
DWIDTH 6 0
BBX 6 7 0 0
BITMAP
FC
F4
F4
F4
F4
EC
7C
ENDCHAR
STARTCHAR Ncaron
ENCODING 327
SWIDTH 578 0
DWIDTH 6 0
BBX 6 11 0 0
BITMAP
28
58
68
38
C4
F4
F4
F4
F4
FC
7C
ENDCHAR
STARTCHAR ncaron
ENCODING 328
SWIDTH 578 0
DWIDTH 6 0
BBX 6 11 0 0
BITMAP
28
58
68
38
C4
F4
F4
F4
F4
FC
7C
ENDCHAR
STARTCHAR napostrophe
ENCODING 329
SWIDTH 578 0
DWIDTH 6 0
BBX 6 7 0 0
BITMAP
FC
F4
F4
F4
F4
FC
7C
ENDCHAR
STARTCHAR Eng
ENCODING 330
SWIDTH 578 0
DWIDTH 6 0
BBX 6 7 0 0
BITMAP
FC
F4
F4
F4
F4
F4
7C
ENDCHAR
STARTCHAR eng
ENCODING 331
SWIDTH 578 0
DWIDTH 6 0
BBX 6 7 0 0
BITMAP
FC
F4
F4
F4
F4
F4
7C
ENDCHAR
STARTCHAR Omacron
ENCODING 332
SWIDTH 578 0
DWIDTH 6 0
BBX 6 10 0 0
BITMAP
78
4C
78
C4
FC
FC
FC
C4
FC
7C
ENDCHAR
STARTCHAR omacron
ENCODING 333
SWIDTH 578 0
DWIDTH 6 0
BBX 6 10 0 0
BITMAP
78
4C
78
C4
FC
FC
FC
C4
FC
7C
ENDCHAR
STARTCHAR Obreve
ENCODING 334
SWIDTH 578 0
DWIDTH 6 0
BBX 6 10 0 0
BITMAP
78
5C
78
C4
FC
FC
FC
C4
FC
7C
ENDCHAR
STARTCHAR obreve
ENCODING 335
SWIDTH 578 0
DWIDTH 6 0
BBX 6 10 0 0
BITMAP
78
5C
78
C4
FC
FC
FC
C4
FC
7C
ENDCHAR
STARTCHAR Ohungarumlaut
ENCODING 336
SWIDTH 578 0
DWIDTH 6 0
BBX 6 11 0 0
BITMAP
1C
3C
34
38
C4
FC
FC
FC
C4
FC
7C
ENDCHAR
STARTCHAR ohungarumlaut
ENCODING 337
SWIDTH 578 0
DWIDTH 6 0
BBX 6 11 0 0
BITMAP
1C
3C
34
38
C4
FC
FC
FC
C4
FC
7C
ENDCHAR
STARTCHAR OE
ENCODING 338
SWIDTH 578 0
DWIDTH 6 0
BBX 6 7 0 0
BITMAP
FC
AC
A4
AC
D4
FC
7C
ENDCHAR
STARTCHAR oe
ENCODING 339
SWIDTH 578 0
DWIDTH 6 0
BBX 6 7 0 0
BITMAP
FC
AC
A4
AC
D4
FC
7C
ENDCHAR
STARTCHAR Racute
ENCODING 340
SWIDTH 578 0
DWIDTH 6 0
BBX 6 11 0 0
BITMAP
18
28
28
30
CC
F4
CC
F4
F4
FC
7C
ENDCHAR
STARTCHAR racute
ENCODING 341
SWIDTH 578 0
DWIDTH 6 0
BBX 6 11 0 0
BITMAP
18
28
28
30
CC
F4
CC
F4
F4
FC
7C
ENDCHAR
STARTCHAR Rcommaaccent
ENCODING 342
SWIDTH 578 0
DWIDTH 6 0
BBX 6 7 0 0
BITMAP
FC
F4
CC
F4
F4
EC
7C
ENDCHAR
STARTCHAR rcommaaccent
ENCODING 343
SWIDTH 578 0
DWIDTH 6 0
BBX 6 7 0 0
BITMAP
FC
F4
CC
F4
F4
EC
7C
ENDCHAR
STARTCHAR Rcaron
ENCODING 344
SWIDTH 578 0
DWIDTH 6 0
BBX 6 11 0 0
BITMAP
28
58
68
38
C4
F4
CC
F4
F4
FC
7C
ENDCHAR
STARTCHAR rcaron
ENCODING 345
SWIDTH 578 0
DWIDTH 6 0
BBX 6 11 0 0
BITMAP
28
58
68
38
C4
F4
CC
F4
F4
FC
7C
ENDCHAR
STARTCHAR Sacute
ENCODING 346
SWIDTH 578 0
DWIDTH 6 0
BBX 6 11 0 0
BITMAP
18
3C
28
38
C4
FC
C4
F4
C4
FC
7C
ENDCHAR
STARTCHAR sacute
ENCODING 347
SWIDTH 578 0
DWIDTH 6 0
BBX 6 11 0 0
BITMAP
18
3C
28
38
C4
FC
C4
F4
C4
FC
7C
ENDCHAR
STARTCHAR Scircumflex
ENCODING 348
SWIDTH 578 0
DWIDTH 6 0
BBX 6 11 0 0
BITMAP
38
38
38
38
C4
FC
C4
F4
C4
FC
7C
ENDCHAR
STARTCHAR scircumflex
ENCODING 349
SWIDTH 578 0
DWIDTH 6 0
BBX 6 11 0 0
BITMAP
38
38
38
38
C4
FC
C4
F4
C4
FC
7C
ENDCHAR
STARTCHAR Scedilla
ENCODING 350
SWIDTH 578 0
DWIDTH 6 0
BBX 6 7 0 0
BITMAP
FC
FC
C4
F4
C4
FC
7C
ENDCHAR
STARTCHAR scedilla
ENCODING 351
SWIDTH 578 0
DWIDTH 6 0
BBX 6 7 0 0
BITMAP
FC
FC
C4
F4
C4
FC
7C
ENDCHAR
STARTCHAR Scaron
ENCODING 352
SWIDTH 578 0
DWIDTH 6 0
BBX 6 11 0 0
BITMAP
28
3C
38
38
C4
FC
C4
F4
C4
FC
7C
ENDCHAR
STARTCHAR scaron
ENCODING 353
SWIDTH 578 0
DWIDTH 6 0
BBX 6 11 0 0
BITMAP
28
3C
38
38
C4
FC
C4
F4
C4
FC
7C
ENDCHAR
STARTCHAR Tcommaaccent
ENCODING 354
SWIDTH 578 0
DWIDTH 6 0
BBX 6 7 0 0
BITMAP
FC
EC
EC
EC
FC
EC
7C
ENDCHAR
STARTCHAR tcommaaccent
ENCODING 355
SWIDTH 578 0
DWIDTH 6 0
BBX 6 7 0 0
BITMAP
FC
EC
EC
EC
FC
EC
7C
ENDCHAR
STARTCHAR Tcaron
ENCODING 356
SWIDTH 578 0
DWIDTH 6 0
BBX 6 11 0 0
BITMAP
28
58
38
38
C4
EC
EC
EC
EC
FC
7C
ENDCHAR
STARTCHAR tcaron
ENCODING 357
SWIDTH 578 0
DWIDTH 6 0
BBX 6 7 0 0
BITMAP
FC
F4
EC
EC
EC
FC
7C
ENDCHAR
STARTCHAR Tbar
ENCODING 358
SWIDTH 578 0
DWIDTH 6 0
BBX 6 7 0 0
BITMAP
FC
EC
CC
EC
EC
FC
7C
ENDCHAR
STARTCHAR tbar
ENCODING 359
SWIDTH 578 0
DWIDTH 6 0
BBX 6 7 0 0
BITMAP
FC
EC
CC
EC
EC
FC
7C
ENDCHAR
STARTCHAR Utilde
ENCODING 360
SWIDTH 578 0
DWIDTH 6 0
BBX 6 11 0 0
BITMAP
10
7C
74
7C
FC
FC
FC
FC
C4
FC
7C
ENDCHAR
STARTCHAR utilde
ENCODING 361
SWIDTH 578 0
DWIDTH 6 0
BBX 6 11 0 0
BITMAP
10
7C
74
7C
FC
FC
FC
FC
C4
FC
7C
ENDCHAR
STARTCHAR Umacron
ENCODING 362
SWIDTH 578 0
DWIDTH 6 0
BBX 6 10 0 0
BITMAP
78
4C
78
FC
FC
FC
FC
C4
FC
7C
ENDCHAR
STARTCHAR umacron
ENCODING 363
SWIDTH 578 0
DWIDTH 6 0
BBX 6 10 0 0
BITMAP
78
4C
78
FC
FC
FC
FC
C4
FC
7C
ENDCHAR
STARTCHAR Ubreve
ENCODING 364
SWIDTH 578 0
DWIDTH 6 0
BBX 6 10 0 0
BITMAP
78
5C
78
FC
FC
FC
FC
C4
FC
7C
ENDCHAR
STARTCHAR ubreve
ENCODING 365
SWIDTH 578 0
DWIDTH 6 0
BBX 6 10 0 0
BITMAP
38
5C
78
FC
FC
FC
FC
C4
FC
7C
ENDCHAR
STARTCHAR Uring
ENCODING 366
SWIDTH 578 0
DWIDTH 6 0
BBX 6 10 0 0
BITMAP
38
58
38
FC
FC
FC
FC
C4
FC
7C
ENDCHAR
STARTCHAR uring
ENCODING 367
SWIDTH 578 0
DWIDTH 6 0
BBX 6 10 0 0
BITMAP
38
58
38
FC
FC
FC
FC
C4
FC
7C
ENDCHAR
STARTCHAR Uhungarumlaut
ENCODING 368
SWIDTH 581 0
DWIDTH 6 0
BBX 6 11 0 0
BITMAP
1C
3C
34
38
FC
FC
FC
FC
C4
FC
7C
ENDCHAR
STARTCHAR uhungarumlaut
ENCODING 369
SWIDTH 582 0
DWIDTH 6 0
BBX 6 11 0 0
BITMAP
1C
3C
34
38
FC
FC
FC
FC
C4
FC
7C
ENDCHAR
STARTCHAR Uogonek
ENCODING 370
SWIDTH 578 0
DWIDTH 6 0
BBX 6 7 0 0
BITMAP
FC
FC
FC
FC
C4
FC
7C
ENDCHAR
STARTCHAR uogonek
ENCODING 371
SWIDTH 578 0
DWIDTH 6 0
BBX 6 7 0 0
BITMAP
FC
FC
FC
FC
C4
FC
7C
ENDCHAR
STARTCHAR Wcircumflex
ENCODING 372
SWIDTH 578 0
DWIDTH 6 0
BBX 6 11 0 0
BITMAP
30
28
78
78
AC
AC
AC
FC
D4
FC
7C
ENDCHAR
STARTCHAR wcircumflex
ENCODING 373
SWIDTH 578 0
DWIDTH 6 0
BBX 6 11 0 0
BITMAP
30
28
78
78
AC
AC
AC
FC
D4
FC
7C
ENDCHAR
STARTCHAR Ycircumflex
ENCODING 374
SWIDTH 578 0
DWIDTH 6 0
BBX 6 11 0 0
BITMAP
30
28
78
38
D4
DC
EC
EC
EC
FC
7C
ENDCHAR
STARTCHAR ycircumflex
ENCODING 375
SWIDTH 578 0
DWIDTH 6 0
BBX 6 11 0 0
BITMAP
30
28
78
38
D4
DC
EC
EC
EC
FC
7C
ENDCHAR
STARTCHAR Ydieresis
ENCODING 376
SWIDTH 578 0
DWIDTH 6 0
BBX 6 10 0 0
BITMAP
38
5C
38
D4
DC
EC
EC
EC
FC
7C
ENDCHAR
STARTCHAR Zacute
ENCODING 377
SWIDTH 578 0
DWIDTH 6 0
BBX 6 11 0 0
BITMAP
10
28
38
30
CC
FC
EC
DC
C4
FC
7C
ENDCHAR
STARTCHAR zacute
ENCODING 378
SWIDTH 578 0
DWIDTH 6 0
BBX 6 11 0 0
BITMAP
10
28
38
30
CC
FC
EC
DC
C4
FC
7C
ENDCHAR
STARTCHAR Zdotaccent
ENCODING 379
SWIDTH 578 0
DWIDTH 6 0
BBX 6 10 0 0
BITMAP
78
6C
78
C4
FC
EC
DC
C4
FC
7C
ENDCHAR
STARTCHAR zdotaccent
ENCODING 380
SWIDTH 578 0
DWIDTH 6 0
BBX 6 10 0 0
BITMAP
78
6C
78
C4
FC
EC
DC
C4
FC
7C
ENDCHAR
STARTCHAR Zcaron
ENCODING 381
SWIDTH 578 0
DWIDTH 6 0
BBX 6 11 0 0
BITMAP
28
58
28
38
C4
FC
EC
DC
C4
FC
7C
ENDCHAR
STARTCHAR zcaron
ENCODING 382
SWIDTH 578 0
DWIDTH 6 0
BBX 6 11 0 0
BITMAP
28
58
28
38
C4
FC
EC
DC
C4
FC
7C
ENDCHAR
STARTCHAR longs
ENCODING 383
SWIDTH 578 0
DWIDTH 6 0
BBX 6 7 0 0
BITMAP
FC
FC
EC
EC
FC
FC
7C
ENDCHAR
STARTCHAR florin
ENCODING 402
SWIDTH 578 0
DWIDTH 6 0
BBX 6 7 0 0
BITMAP
FC
FC
CC
FC
FC
DC
7C
ENDCHAR
STARTCHAR uni01CD
ENCODING 461
SWIDTH 578 0
DWIDTH 6 0
BBX 6 11 0 0
BITMAP
28
58
28
38
C4
F4
C4
F4
F4
FC
7C
ENDCHAR
STARTCHAR uni01CE
ENCODING 462
SWIDTH 578 0
DWIDTH 6 0
BBX 6 11 0 0
BITMAP
28
78
38
38
C4
F4
C4
F4
CC
FC
7C
ENDCHAR
STARTCHAR uni01CF
ENCODING 463
SWIDTH 578 0
DWIDTH 6 0
BBX 6 11 0 0
BITMAP
28
3C
38
38
C4
EC
EC
EC
C4
FC
7C
ENDCHAR
STARTCHAR uni01D0
ENCODING 464
SWIDTH 578 0
DWIDTH 6 0
BBX 6 11 0 0
BITMAP
28
38
38
38
C4
EC
EC
EC
C4
FC
7C
ENDCHAR
STARTCHAR uni01D1
ENCODING 465
SWIDTH 578 0
DWIDTH 6 0
BBX 6 11 0 0
BITMAP
28
78
38
38
C4
FC
FC
FC
C4
FC
7C
ENDCHAR
STARTCHAR uni01D3
ENCODING 467
SWIDTH 578 0
DWIDTH 6 0
BBX 6 11 0 0
BITMAP
28
78
38
38
FC
FC
FC
FC
C4
FC
7C
ENDCHAR
STARTCHAR uni01D4
ENCODING 468
SWIDTH 578 0
DWIDTH 6 0
BBX 6 11 0 0
BITMAP
28
38
38
38
FC
FC
FC
FC
C4
FC
7C
ENDCHAR
STARTCHAR uni0200
ENCODING 512
SWIDTH 578 0
DWIDTH 6 0
BBX 6 11 0 0
BITMAP
70
F0
68
38
C4
F4
C4
F4
F4
FC
7C
ENDCHAR
STARTCHAR uni0201
ENCODING 513
SWIDTH 578 0
DWIDTH 6 0
BBX 6 11 0 0
BITMAP
70
F0
68
38
C4
F4
C4
F4
CC
FC
7C
ENDCHAR
STARTCHAR uni0202
ENCODING 514
SWIDTH 578 0
DWIDTH 6 0
BBX 6 10 0 0
BITMAP
78
6C
78
C4
F4
C4
F4
F4
FC
7C
ENDCHAR
STARTCHAR uni0203
ENCODING 515
SWIDTH 578 0
DWIDTH 6 0
BBX 6 10 0 0
BITMAP
78
6C
78
C4
F4
C4
F4
CC
FC
7C
ENDCHAR
STARTCHAR uni0204
ENCODING 516
SWIDTH 578 0
DWIDTH 6 0
BBX 6 11 0 0
BITMAP
70
F0
68
38
C4
DC
C4
DC
C4
FC
7C
ENDCHAR
STARTCHAR uni0205
ENCODING 517
SWIDTH 578 0
DWIDTH 6 0
BBX 6 11 0 0
BITMAP
70
F0
68
38
C4
F4
FC
FC
FC
FC
7C
ENDCHAR
STARTCHAR uni0206
ENCODING 518
SWIDTH 578 0
DWIDTH 6 0
BBX 6 10 0 0
BITMAP
78
6C
78
C4
DC
C4
DC
C4
FC
7C
ENDCHAR
STARTCHAR uni0207
ENCODING 519
SWIDTH 578 0
DWIDTH 6 0
BBX 6 10 0 0
BITMAP
78
6C
78
C4
F4
FC
FC
FC
FC
7C
ENDCHAR
STARTCHAR uni0208
ENCODING 520
SWIDTH 578 0
DWIDTH 6 0
BBX 6 11 0 0
BITMAP
70
F0
68
38
C4
EC
EC
EC
C4
FC
7C
ENDCHAR
STARTCHAR uni0209
ENCODING 521
SWIDTH 578 0
DWIDTH 6 0
BBX 6 11 0 0
BITMAP
70
F0
68
38
C4
EC
EC
EC
C4
FC
7C
ENDCHAR
STARTCHAR uni020A
ENCODING 522
SWIDTH 578 0
DWIDTH 6 0
BBX 6 10 0 0
BITMAP
78
6C
78
C4
EC
EC
EC
C4
FC
7C
ENDCHAR
STARTCHAR uni020B
ENCODING 523
SWIDTH 578 0
DWIDTH 6 0
BBX 6 10 0 0
BITMAP
78
6C
78
C4
EC
EC
EC
C4
FC
7C
ENDCHAR
STARTCHAR uni020C
ENCODING 524
SWIDTH 578 0
DWIDTH 6 0
BBX 6 11 0 0
BITMAP
70
F0
68
38
C4
FC
FC
FC
C4
FC
7C
ENDCHAR
STARTCHAR uni020D
ENCODING 525
SWIDTH 578 0
DWIDTH 6 0
BBX 6 11 0 0
BITMAP
70
F0
68
38
C4
FC
FC
FC
C4
FC
7C
ENDCHAR
STARTCHAR uni020E
ENCODING 526
SWIDTH 578 0
DWIDTH 6 0
BBX 6 10 0 0
BITMAP
78
6C
78
C4
FC
FC
FC
C4
FC
7C
ENDCHAR
STARTCHAR uni020F
ENCODING 527
SWIDTH 578 0
DWIDTH 6 0
BBX 6 10 0 0
BITMAP
78
6C
78
C4
FC
FC
FC
C4
FC
7C
ENDCHAR
STARTCHAR uni0210
ENCODING 528
SWIDTH 578 0
DWIDTH 6 0
BBX 6 11 0 0
BITMAP
70
F0
68
38
C4
F4
CC
F4
F4
FC
7C
ENDCHAR
STARTCHAR uni0211
ENCODING 529
SWIDTH 578 0
DWIDTH 6 0
BBX 6 11 0 0
BITMAP
70
F0
68
38
C4
F4
CC
F4
F4
FC
7C
ENDCHAR
STARTCHAR uni0212
ENCODING 530
SWIDTH 578 0
DWIDTH 6 0
BBX 6 10 0 0
BITMAP
78
6C
78
C4
F4
CC
F4
F4
FC
7C
ENDCHAR
STARTCHAR uni0213
ENCODING 531
SWIDTH 578 0
DWIDTH 6 0
BBX 6 10 0 0
BITMAP
78
6C
78
C4
F4
CC
F4
F4
FC
7C
ENDCHAR
STARTCHAR uni0214
ENCODING 532
SWIDTH 578 0
DWIDTH 6 0
BBX 6 11 0 0
BITMAP
70
F0
68
38
FC
FC
FC
FC
C4
FC
7C
ENDCHAR
STARTCHAR uni0215
ENCODING 533
SWIDTH 578 0
DWIDTH 6 0
BBX 6 11 0 0
BITMAP
70
F0
68
38
FC
FC
FC
FC
C4
FC
7C
ENDCHAR
STARTCHAR uni0216
ENCODING 534
SWIDTH 578 0
DWIDTH 6 0
BBX 6 10 0 0
BITMAP
78
6C
78
FC
FC
FC
FC
C4
FC
7C
ENDCHAR
STARTCHAR uni0217
ENCODING 535
SWIDTH 578 0
DWIDTH 6 0
BBX 6 10 0 0
BITMAP
78
6C
78
FC
FC
FC
FC
C4
FC
7C
ENDCHAR
STARTCHAR uni0218
ENCODING 536
SWIDTH 578 0
DWIDTH 6 0
BBX 6 7 0 0
BITMAP
FC
FC
C4
F4
D4
EC
7C
ENDCHAR
STARTCHAR uni0219
ENCODING 537
SWIDTH 578 0
DWIDTH 6 0
BBX 6 7 0 0
BITMAP
FC
FC
C4
F4
D4
EC
7C
ENDCHAR
STARTCHAR uni021A
ENCODING 538
SWIDTH 578 0
DWIDTH 6 0
BBX 6 7 0 0
BITMAP
FC
EC
EC
EC
FC
EC
7C
ENDCHAR
STARTCHAR uni021B
ENCODING 539
SWIDTH 578 0
DWIDTH 6 0
BBX 6 7 0 0
BITMAP
FC
EC
EC
EC
FC
EC
7C
ENDCHAR
STARTCHAR circumflex
ENCODING 710
SWIDTH 355 0
DWIDTH 4 0
BBX 4 4 0 0
BITMAP
60
E0
D0
F0
ENDCHAR
STARTCHAR caron
ENCODING 711
SWIDTH 355 0
DWIDTH 4 0
BBX 4 4 0 0
BITMAP
60
D0
B0
60
ENDCHAR
STARTCHAR breve
ENCODING 728
SWIDTH 428 0
DWIDTH 5 0
BBX 5 3 0 0
BITMAP
F0
B8
F0
ENDCHAR
STARTCHAR dotaccent
ENCODING 729
SWIDTH 428 0
DWIDTH 5 0
BBX 5 3 0 0
BITMAP
F0
D8
F0
ENDCHAR
STARTCHAR ring
ENCODING 730
SWIDTH 368 0
DWIDTH 4 0
BBX 4 3 0 0
BITMAP
F0
B0
F0
ENDCHAR
STARTCHAR ogonek
ENCODING 731
SWIDTH 101 0
DWIDTH 1 0
BBX 1 2 0 -2
BITMAP
80
80
ENDCHAR
STARTCHAR tilde
ENCODING 732
SWIDTH 428 0
DWIDTH 5 0
BBX 5 4 0 0
BITMAP
20
F0
F8
F0
ENDCHAR
STARTCHAR hungarumlaut
ENCODING 733
SWIDTH 419 0
DWIDTH 5 0
BBX 5 4 0 0
BITMAP
70
68
B0
E0
ENDCHAR
STARTCHAR uni030F
ENCODING 783
SWIDTH 419 0
DWIDTH 5 0
BBX 5 4 0 0
BITMAP
60
D0
F0
78
ENDCHAR
STARTCHAR mu
ENCODING 956
SWIDTH 578 0
DWIDTH 6 0
BBX 6 7 0 0
BITMAP
FC
FC
FC
FC
C4
FC
7C
ENDCHAR
STARTCHAR pi
ENCODING 960
SWIDTH 578 0
DWIDTH 6 0
BBX 6 7 0 0
BITMAP
FC
DC
DC
DC
F4
FC
7C
ENDCHAR
STARTCHAR uni1E60
ENCODING 7776
SWIDTH 578 0
DWIDTH 6 0
BBX 6 10 0 0
BITMAP
38
6C
7C
C4
FC
C4
F4
C4
FC
7C
ENDCHAR
STARTCHAR uni1E8E
ENCODING 7822
SWIDTH 578 0
DWIDTH 6 0
BBX 6 10 0 0
BITMAP
78
6C
7C
D4
DC
EC
EC
EC
FC
7C
ENDCHAR
STARTCHAR uni1E8F
ENCODING 7823
SWIDTH 578 0
DWIDTH 6 0
BBX 6 10 0 0
BITMAP
78
6C
7C
D4
DC
EC
EC
EC
FC
7C
ENDCHAR
STARTCHAR uni1EBC
ENCODING 7868
SWIDTH 578 0
DWIDTH 6 0
BBX 6 11 0 0
BITMAP
10
7C
74
7C
C4
DC
C4
DC
C4
FC
7C
ENDCHAR
STARTCHAR uni1EF8
ENCODING 7928
SWIDTH 578 0
DWIDTH 6 0
BBX 6 11 0 0
BITMAP
10
7C
74
7C
D4
DC
EC
EC
EC
FC
7C
ENDCHAR
STARTCHAR uni1EF9
ENCODING 7929
SWIDTH 578 0
DWIDTH 6 0
BBX 6 11 0 0
BITMAP
10
7C
74
7C
D4
DC
EC
EC
EC
FC
7C
ENDCHAR
STARTCHAR endash
ENCODING 8211
SWIDTH 428 0
DWIDTH 5 0
BBX 5 7 0 0
BITMAP
F0
98
F8
F8
F8
F8
70
ENDCHAR
STARTCHAR emdash
ENCODING 8212
SWIDTH 428 0
DWIDTH 5 0
BBX 5 7 0 0
BITMAP
F0
08
F8
F8
F8
F8
70
ENDCHAR
STARTCHAR quoteleft
ENCODING 8216
SWIDTH 428 0
DWIDTH 5 0
BBX 5 7 0 0
BITMAP
F0
F8
F8
F8
F8
F8
70
ENDCHAR
STARTCHAR quoteright
ENCODING 8217
SWIDTH 428 0
DWIDTH 5 0
BBX 5 7 0 0
BITMAP
F0
F8
F8
F8
F8
F8
70
ENDCHAR
STARTCHAR quotesinglbase
ENCODING 8218
SWIDTH 428 0
DWIDTH 5 0
BBX 5 7 0 0
BITMAP
F0
F8
F8
F8
D8
F8
70
ENDCHAR
STARTCHAR quotedblleft
ENCODING 8220
SWIDTH 428 0
DWIDTH 5 0
BBX 5 7 0 0
BITMAP
F0
F8
F8
F8
F8
F8
70
ENDCHAR
STARTCHAR quotedblright
ENCODING 8221
SWIDTH 428 0
DWIDTH 5 0
BBX 5 7 0 0
BITMAP
F0
F8
F8
F8
F8
F8
70
ENDCHAR
STARTCHAR quotedblbase
ENCODING 8222
SWIDTH 428 0
DWIDTH 5 0
BBX 5 7 0 0
BITMAP
F0
F8
F8
F8
F8
F8
70
ENDCHAR
STARTCHAR dagger
ENCODING 8224
SWIDTH 578 0
DWIDTH 6 0
BBX 6 7 0 0
BITMAP
FC
CC
EC
EC
EC
FC
7C
ENDCHAR
STARTCHAR daggerdbl
ENCODING 8225
SWIDTH 578 0
DWIDTH 6 0
BBX 6 7 0 0
BITMAP
FC
CC
EC
CC
EC
FC
7C
ENDCHAR
STARTCHAR bullet
ENCODING 8226
SWIDTH 578 0
DWIDTH 6 0
BBX 6 7 0 0
BITMAP
FC
C4
C4
C4
FC
FC
7C
ENDCHAR
STARTCHAR ellipsis
ENCODING 8230
SWIDTH 578 0
DWIDTH 6 0
BBX 6 7 0 0
BITMAP
FC
FC
FC
FC
B4
FC
7C
ENDCHAR
STARTCHAR perthousand
ENCODING 8240
SWIDTH 640 0
DWIDTH 7 0
BBX 7 7 0 0
BITMAP
FE
FE
DE
FE
FE
FE
7C
ENDCHAR
STARTCHAR guilsinglleft
ENCODING 8249
SWIDTH 578 0
DWIDTH 6 0
BBX 6 7 0 0
BITMAP
FC
EC
FC
EC
FC
FC
7C
ENDCHAR
STARTCHAR guilsinglright
ENCODING 8250
SWIDTH 578 0
DWIDTH 6 0
BBX 6 7 0 0
BITMAP
FC
FC
FC
EC
FC
FC
7C
ENDCHAR
STARTCHAR fraction
ENCODING 8260
SWIDTH 428 0
DWIDTH 5 0
BBX 5 7 0 0
BITMAP
F0
D8
D8
F8
F8
F8
70
ENDCHAR
STARTCHAR Euro
ENCODING 8364
SWIDTH 578 0
DWIDTH 6 0
BBX 6 7 0 0
BITMAP
FC
FC
FC
FC
CC
FC
7C
ENDCHAR
STARTCHAR trademark
ENCODING 8482
SWIDTH 578 0
DWIDTH 6 0
BBX 6 7 0 0
BITMAP
FC
FC
F4
F4
FC
FC
7C
ENDCHAR
STARTCHAR product
ENCODING 8719
SWIDTH 578 0
DWIDTH 6 0
BBX 6 7 0 0
BITMAP
FC
CC
DC
DC
F4
FC
7C
ENDCHAR
STARTCHAR minus
ENCODING 8722
SWIDTH 428 0
DWIDTH 5 0
BBX 5 7 0 0
BITMAP
F0
98
F8
F8
F8
F8
70
ENDCHAR
STARTCHAR notequal
ENCODING 8800
SWIDTH 578 0
DWIDTH 6 0
BBX 6 7 0 0
BITMAP
FC
C4
FC
FC
FC
FC
7C
ENDCHAR
STARTCHAR uni2706
ENCODING 9990
SWIDTH 578 0
DWIDTH 6 0
BBX 6 7 0 0
BITMAP
FC
D4
FC
DC
F4
FC
7C
ENDCHAR
STARTCHAR uni2708
ENCODING 9992
SWIDTH 578 0
DWIDTH 6 0
BBX 6 7 0 0
BITMAP
FC
DC
B4
94
94
94
FC
ENDCHAR
STARTCHAR uniF6D6
ENCODING 63190
SWIDTH 419 0
DWIDTH 5 0
BBX 5 4 0 0
BITMAP
60
D0
F0
78
ENDCHAR
STARTCHAR uFFFF2
ENCODING 1048562
SWIDTH 578 0
DWIDTH 6 0
BBX 6 7 0 0
BITMAP
FC
94
BC
D4
B4
94
FC
ENDCHAR
STARTCHAR uFFFF3
ENCODING 1048563
SWIDTH 578 0
DWIDTH 6 0
BBX 6 7 0 0
BITMAP
FC
BC
94
BC
94
84
FC
ENDCHAR
STARTCHAR uFFFF4
ENCODING 1048564
SWIDTH 578 0
DWIDTH 6 0
BBX 6 7 0 0
BITMAP
FC
F4
EC
F4
FC
FC
7C
ENDCHAR
STARTCHAR uFFFF5
ENCODING 1048565
SWIDTH 578 0
DWIDTH 6 0
BBX 6 7 0 0
BITMAP
FC
BC
CC
EC
FC
EC
7C
ENDCHAR
STARTCHAR uFFFF6
ENCODING 1048566
SWIDTH 578 0
DWIDTH 6 0
BBX 6 7 0 0
BITMAP
FC
EC
CC
FC
DC
EC
7C
ENDCHAR
STARTCHAR uFFFF8
ENCODING 1048568
SWIDTH 578 0
DWIDTH 6 0
BBX 6 7 0 0
BITMAP
FC
EC
F4
C4
CC
FC
7C
ENDCHAR
STARTCHAR uFFFF9
ENCODING 1048569
SWIDTH 578 0
DWIDTH 6 0
BBX 6 7 0 0
BITMAP
FC
BC
DC
AC
94
84
FC
ENDCHAR
STARTCHAR uFFFFB
ENCODING 1048571
SWIDTH 578 0
DWIDTH 6 0
BBX 6 7 0 0
BITMAP
FC
DC
EC
D4
EC
FC
7C
ENDCHAR
STARTCHAR uFFFFC
ENCODING 1048572
SWIDTH 578 0
DWIDTH 6 0
BBX 6 7 0 0
BITMAP
FC
FC
FC
EC
FC
FC
7C
ENDCHAR
STARTCHAR uFFFFD
ENCODING 1048573
SWIDTH 578 0
DWIDTH 6 0
BBX 6 7 0 0
BITMAP
FC
C4
F4
DC
EC
FC
7C
ENDCHAR
STARTCHAR uFFFFE
ENCODING 1048574
SWIDTH 578 0
DWIDTH 6 0
BBX 6 7 0 0
BITMAP
FC
EC
EC
94
FC
FC
7C
ENDCHAR
STARTCHAR uFFFFF
ENCODING 1048575
SWIDTH 578 0
DWIDTH 6 0
BBX 6 7 0 0
BITMAP
FC
BC
DC
B4
94
94
FC
ENDCHAR
STARTCHAR .notdef
ENCODING -1
SWIDTH 1000 0
DWIDTH 11 0
BBX 1 1 0 0
BITMAP
00
ENDCHAR
STARTCHAR glyph1
ENCODING -1
SWIDTH 0 0
DWIDTH 0 0
BBX 1 1 0 0
BITMAP
00
ENDCHAR
ENDFONT
